<mxfile host="app.diagrams.net" modified="2022-07-03T10:50:57.388Z" agent="5.0 (Windows NT 10.0; Win64; x64) AppleWebKit/537.36 (KHTML, like Gecko) Chrome/103.0.0.0 Safari/537.36" etag="yr5LoB4v4GawOMJGrosD" version="20.0.4" type="github">
  <diagram name="Page-1" id="c4acf3e9-155e-7222-9cf6-157b1a14988f">
    <mxGraphModel dx="981" dy="526" grid="0" gridSize="10" guides="1" tooltips="1" connect="1" arrows="1" fold="1" page="1" pageScale="1" pageWidth="850" pageHeight="1100" background="none" math="0" shadow="0">
      <root>
        <mxCell id="0" />
        <mxCell id="1" parent="0" />
        <mxCell id="6PY8VP7G4BEyEFtIkNE3-2" value="Next function" style="swimlane;fontStyle=1;align=center;verticalAlign=top;childLayout=stackLayout;horizontal=1;startSize=26;horizontalStack=0;resizeParent=1;resizeParentMax=0;resizeLast=0;collapsible=1;marginBottom=0;" vertex="1" parent="1">
          <mxGeometry x="64" y="70" width="160" height="86" as="geometry" />
        </mxCell>
        <mxCell id="6PY8VP7G4BEyEFtIkNE3-3" value="funct add" style="text;strokeColor=none;fillColor=none;align=left;verticalAlign=top;spacingLeft=4;spacingRight=4;overflow=hidden;rotatable=0;points=[[0,0.5],[1,0.5]];portConstraint=eastwest;" vertex="1" parent="6PY8VP7G4BEyEFtIkNE3-2">
          <mxGeometry y="26" width="160" height="26" as="geometry" />
        </mxCell>
        <mxCell id="6PY8VP7G4BEyEFtIkNE3-4" value="" style="line;strokeWidth=1;fillColor=none;align=left;verticalAlign=middle;spacingTop=-1;spacingLeft=3;spacingRight=3;rotatable=0;labelPosition=right;points=[];portConstraint=eastwest;" vertex="1" parent="6PY8VP7G4BEyEFtIkNE3-2">
          <mxGeometry y="52" width="160" height="8" as="geometry" />
        </mxCell>
        <mxCell id="6PY8VP7G4BEyEFtIkNE3-5" value="func div" style="text;strokeColor=none;fillColor=none;align=left;verticalAlign=top;spacingLeft=4;spacingRight=4;overflow=hidden;rotatable=0;points=[[0,0.5],[1,0.5]];portConstraint=eastwest;" vertex="1" parent="6PY8VP7G4BEyEFtIkNE3-2">
          <mxGeometry y="60" width="160" height="26" as="geometry" />
        </mxCell>
        <mxCell id="6PY8VP7G4BEyEFtIkNE3-9" value="" style="group" vertex="1" connectable="0" parent="1">
          <mxGeometry x="287" y="68" width="110" height="100" as="geometry" />
        </mxCell>
        <mxCell id="6PY8VP7G4BEyEFtIkNE3-6" value="Result" style="html=1;" vertex="1" parent="6PY8VP7G4BEyEFtIkNE3-9">
          <mxGeometry width="110" height="50" as="geometry" />
        </mxCell>
        <mxCell id="6PY8VP7G4BEyEFtIkNE3-7" value="x" style="html=1;" vertex="1" parent="6PY8VP7G4BEyEFtIkNE3-9">
          <mxGeometry y="50" width="110" height="50" as="geometry" />
        </mxCell>
        <mxCell id="6PY8VP7G4BEyEFtIkNE3-12" value="Algorithm:&lt;br&gt;1. Take current result as x&lt;br&gt;2. Check if next function exists&lt;br&gt;3. If exists,&amp;nbsp;" style="text;html=1;align=center;verticalAlign=middle;resizable=0;points=[];autosize=1;strokeColor=none;fillColor=none;" vertex="1" parent="1">
          <mxGeometry x="45" y="202" width="180" height="70" as="geometry" />
        </mxCell>
      </root>
    </mxGraphModel>
  </diagram>
</mxfile>
